<?xml version="1.0"?>
<svg xmlns="http://www.w3.org/2000/svg" xmlns:xlink="http://www.w3.org/1999/xlink" xmlns:svgjs="http://svgjs.com/svgjs" version="1.1" width="512" height="512" x="0" y="0" viewBox="0 0 512 512" style="enable-background:new 0 0 512 512" xml:space="preserve" class=""><g><path xmlns="http://www.w3.org/2000/svg" d="m176 128-24 24-49.42-49.41992a15.73489 15.73489 0 0 1 -6.58 1.41992 16 16 0 0 1 0-32 16 16 0 0 1 32 0 15.73387 15.73387 0 0 1 -1.42 6.58008z" fill="#ffe27a" data-original="#f0de9c" style="" class=""/><path xmlns="http://www.w3.org/2000/svg" d="m256.71 211.6499a56.02809 56.02809 0 0 1 -88.31 11.9502c-21.87-21.8701-44.49-79.95996-22.63-101.8301 15.56-15.55 49.45-8.59009 75.59 4.6001 10.6 5.34985 19.93 11.71972 26.24 18.02978a56.02183 56.02183 0 0 1 9.11 67.25002z" fill="#f0c033" data-original="#f0c033" style=""/><path xmlns="http://www.w3.org/2000/svg" d="m256.71 211.6499a64.11537 64.11537 0 0 1 -35.35-85.27978c10.6 5.34985 19.93 11.71972 26.24 18.02978a56.02183 56.02183 0 0 1 9.11 67.25z" fill="#ea8804" data-original="#ea8804" style="" class=""/><path xmlns="http://www.w3.org/2000/svg" d="m392 40a16 16 0 1 0 -30.5752 6.5752l-49.4248 49.4248 24 24 49.4248-49.4248a15.99556 15.99556 0 1 0 6.5752-30.5752z" fill="#ffe27a" data-original="#f0de9c" style="" class=""/><path xmlns="http://www.w3.org/2000/svg" d="m350.68994 123.71c-2.63989 24.76-17.02 53.82007-31.09 67.89014a56.00291 56.00291 0 1 1 -79.2-79.2002c21.87006-21.86994 79.96006-44.49003 101.83006-22.62994 7.8 7.80007 9.93992 20.21 8.45994 33.94z" fill="#f0c033" data-original="#f0c033" style=""/><path xmlns="http://www.w3.org/2000/svg" d="m350.68994 123.71c-2.63989 24.76-17.02 53.82007-31.09 67.89014a55.78253 55.78253 0 0 1 -14.54993 10.5 40.62669 40.62669 0 0 1 -8.43-16.91016 39.37639 39.37639 0 0 1 21.03991-44.97z" fill="#ea8804" data-original="#ea8804" style="" class=""/><path xmlns="http://www.w3.org/2000/svg" d="m464 176a31.99139 31.99139 0 0 1 -32 32h-96.44995c-33.76 0-44.51-45.52-14.31006-60.62012l118.76001-59.37988a71.77476 71.77476 0 0 1 -21.09009 50.90991 70.09049 70.09049 0 0 1 -5.65991 5.09009h18.75a31.58259 31.58259 0 0 1 3.65991.21 32.00137 32.00137 0 0 1 28.34009 31.79z" fill="#f0c033" data-original="#f0c033" style=""/><path xmlns="http://www.w3.org/2000/svg" d="m435.65991 144.21a87.85766 87.85766 0 0 1 -67.65991 31.79h-8v-16h8a71.79674 71.79674 0 0 0 45.25-16h18.75a31.58259 31.58259 0 0 1 3.65991.21z" fill="#ea8804" data-original="#ea8804" style="" class=""/><path xmlns="http://www.w3.org/2000/svg" d="m104 184h384v32h-384z" fill="#c6d6e2" data-original="#c6d6e2" style="" class=""/><path xmlns="http://www.w3.org/2000/svg" d="m416 488h-240l-40-272h320z" fill="#cf0000" data-original="#e64042" style="" class=""/><path xmlns="http://www.w3.org/2000/svg" d="m208 336a15.99221 15.99221 0 0 1 -22.58 14.58008l-20.24 20.24-29.18 29.17992-24-24 49.42-49.41992a15.99831 15.99831 0 1 1 30.58-6.58008 15.99552 15.99552 0 0 1 16 16z" fill="#ffe27a" data-original="#f0de9c" style="" class=""/><path xmlns="http://www.w3.org/2000/svg" d="m165.18 370.82007-29.18 29.17993-4.52-4.52a64.23507 64.23507 0 0 1 33.7-24.65993z" fill="#f0c033" data-original="#f0c033" style=""/><path xmlns="http://www.w3.org/2000/svg" d="m127.55 462.12012a78.50806 78.50806 0 0 1 -7.95 9.48 56.00291 56.00291 0 0 1 -79.2-79.2002c21.87-21.86987 79.96-44.49 101.83-22.62988a27.65038 27.65038 0 0 1 5.98 9.2c9.06 22.36004-4.42 60.65008-20.66 83.15008z" fill="#f0c033" data-original="#f0c033" style=""/><path xmlns="http://www.w3.org/2000/svg" d="m328 432a16 16 0 1 0 -16-16h-64v32h64a16 16 0 1 0 16-16z" fill="#ffe27a" data-original="#f0de9c" style="" class=""/><path xmlns="http://www.w3.org/2000/svg" d="m127.55 462.12012a63.919 63.919 0 0 1 20.66-83.15012c9.06 22.36008-4.42 60.65012-20.66 83.15012z" fill="#ea8804" data-original="#ea8804" style="" class=""/><path xmlns="http://www.w3.org/2000/svg" d="m272 432c0 30.928-57.072 56-88 56a56 56 0 0 1 0-112c30.928 0 88 25.07205 88 56z" fill="#f0c033" data-original="#f0c033" style=""/></g></svg>
